<?xml version="1.0" encoding="UTF-8"?>
<svg width="128px" height="128px" viewBox="0 0 128 128" version="1.1" xmlns="http://www.w3.org/2000/svg" xmlns:xlink="http://www.w3.org/1999/xlink">
    <!-- Generator: Sketch 56.3 (81716) - https://sketch.com -->
    <title>android-studio-128</title>
    <desc>Created with Sketch.</desc>
    <defs>
        <path d="M101.333333,50.6666667 C101.333333,22.6866667 78.6466667,0 50.6666667,0 C22.6866667,0 0,22.6866667 0,50.6666667 C0,66.0533333 6.86666667,79.8266667 17.6933333,89.1133333 L11.6133333,99.64 L11.6133333,108 C11.6133333,108.733333 12.2133333,109.333333 12.9466667,109.333333 C13.1933333,109.333333 13.42,109.266667 13.62,109.153333 L20.8533333,104.98 L26.5,95.2066667 C33.68,99.1133333 41.9133333,101.333333 50.6666667,101.333333 C59.42,101.333333 67.6533333,99.1133333 74.84,95.2066667 L80.4866667,104.98 L87.72,109.153333 C87.92,109.266667 88.1466667,109.333333 88.3933333,109.333333 C89.1266667,109.333333 89.7266667,108.733333 89.7266667,108 L89.7266667,99.64 L83.6466667,89.1133333 C94.4666667,79.8266667 101.333333,66.0533333 101.333333,50.6666667 Z" id="path-1"></path>
        <path d="M101.333333,50.6666667 C101.333333,22.6866667 78.6466667,0 50.6666667,0 C22.6866667,0 0,22.6866667 0,50.6666667 C0,66.0533333 6.86666667,79.8266667 17.6933333,89.1133333 L11.6133333,99.64 L11.6133333,108 C11.6133333,108.733333 12.2133333,109.333333 12.9466667,109.333333 C13.1933333,109.333333 13.42,109.266667 13.62,109.153333 L20.8533333,104.98 L26.5,95.2066667 C33.68,99.1133333 41.9133333,101.333333 50.6666667,101.333333 C59.42,101.333333 67.6533333,99.1133333 74.84,95.2066667 L80.4866667,104.98 L87.72,109.153333 C87.92,109.266667 88.1466667,109.333333 88.3933333,109.333333 C89.1266667,109.333333 89.7266667,108.733333 89.7266667,108 L89.7266667,99.64 L83.6466667,89.1133333 C94.4666667,79.8266667 101.333333,66.0533333 101.333333,50.6666667 Z" id="path-3"></path>
        <path d="M101.333333,50.6666667 C101.333333,22.6866667 78.6466667,0 50.6666667,0 C22.6866667,0 0,22.6866667 0,50.6666667 C0,66.0533333 6.86666667,79.8266667 17.6933333,89.1133333 L11.6133333,99.64 L11.6133333,108 C11.6133333,108.733333 12.2133333,109.333333 12.9466667,109.333333 C13.1933333,109.333333 13.42,109.266667 13.62,109.153333 L20.8533333,104.98 L26.5,95.2066667 C33.68,99.1133333 41.9133333,101.333333 50.6666667,101.333333 C59.42,101.333333 67.6533333,99.1133333 74.84,95.2066667 L80.4866667,104.98 L87.72,109.153333 C87.92,109.266667 88.1466667,109.333333 88.3933333,109.333333 C89.1266667,109.333333 89.7266667,108.733333 89.7266667,108 L89.7266667,99.64 L83.6466667,89.1133333 C94.4666667,79.8266667 101.333333,66.0533333 101.333333,50.6666667 Z" id="path-5"></path>
        <path d="M101.333333,50.6666667 C101.333333,22.6866667 78.6466667,0 50.6666667,0 C22.6866667,0 0,22.6866667 0,50.6666667 C0,66.0533333 6.86666667,79.8266667 17.6933333,89.1133333 L11.6133333,99.64 L11.6133333,108 C11.6133333,108.733333 12.2133333,109.333333 12.9466667,109.333333 C13.1933333,109.333333 13.42,109.266667 13.62,109.153333 L20.8533333,104.98 L26.5,95.2066667 C33.68,99.1133333 41.9133333,101.333333 50.6666667,101.333333 C59.42,101.333333 67.6533333,99.1133333 74.84,95.2066667 L80.4866667,104.98 L87.72,109.153333 C87.92,109.266667 88.1466667,109.333333 88.3933333,109.333333 C89.1266667,109.333333 89.7266667,108.733333 89.7266667,108 L89.7266667,99.64 L83.6466667,89.1133333 C94.4666667,79.8266667 101.333333,66.0533333 101.333333,50.6666667 Z" id="path-7"></path>
        <path d="M101.333333,50.6666667 C101.333333,22.6866667 78.6466667,0 50.6666667,0 C22.6866667,0 0,22.6866667 0,50.6666667 C0,66.0533333 6.86666667,79.8266667 17.6933333,89.1133333 L11.6133333,99.64 L11.6133333,108 C11.6133333,108.733333 12.2133333,109.333333 12.9466667,109.333333 C13.1933333,109.333333 13.42,109.266667 13.62,109.153333 L20.8533333,104.98 L26.5,95.2066667 C33.68,99.1133333 41.9133333,101.333333 50.6666667,101.333333 C59.42,101.333333 67.6533333,99.1133333 74.84,95.2066667 L80.4866667,104.98 L87.72,109.153333 C87.92,109.266667 88.1466667,109.333333 88.3933333,109.333333 C89.1266667,109.333333 89.7266667,108.733333 89.7266667,108 L89.7266667,99.64 L83.6466667,89.1133333 C94.4666667,79.8266667 101.333333,66.0533333 101.333333,50.6666667 Z" id="path-9"></path>
        <path d="M101.333333,50.6666667 C101.333333,22.6866667 78.6466667,0 50.6666667,0 C22.6866667,0 0,22.6866667 0,50.6666667 C0,66.0533333 6.86666667,79.8266667 17.6933333,89.1133333 L11.6133333,99.64 L11.6133333,108 C11.6133333,108.733333 12.2133333,109.333333 12.9466667,109.333333 C13.1933333,109.333333 13.42,109.266667 13.62,109.153333 L20.8533333,104.98 L26.5,95.2066667 C33.68,99.1133333 41.9133333,101.333333 50.6666667,101.333333 C59.42,101.333333 67.6533333,99.1133333 74.84,95.2066667 L80.4866667,104.98 L87.72,109.153333 C87.92,109.266667 88.1466667,109.333333 88.3933333,109.333333 C89.1266667,109.333333 89.7266667,108.733333 89.7266667,108 L89.7266667,99.64 L83.6466667,89.1133333 C94.4666667,79.8266667 101.333333,66.0533333 101.333333,50.6666667 Z" id="path-11"></path>
        <path d="M101.333333,50.6666667 C101.333333,22.6866667 78.6466667,0 50.6666667,0 C22.6866667,0 0,22.6866667 0,50.6666667 C0,66.0533333 6.86666667,79.8266667 17.6933333,89.1133333 L11.6133333,99.64 L11.6133333,108 C11.6133333,108.733333 12.2133333,109.333333 12.9466667,109.333333 C13.1933333,109.333333 13.42,109.266667 13.62,109.153333 L20.8533333,104.98 L26.5,95.2066667 C33.68,99.1133333 41.9133333,101.333333 50.6666667,101.333333 C59.42,101.333333 67.6533333,99.1133333 74.84,95.2066667 L80.4866667,104.98 L87.72,109.153333 C87.92,109.266667 88.1466667,109.333333 88.3933333,109.333333 C89.1266667,109.333333 89.7266667,108.733333 89.7266667,108 L89.7266667,99.64 L83.6466667,89.1133333 C94.4666667,79.8266667 101.333333,66.0533333 101.333333,50.6666667 Z" id="path-13"></path>
        <linearGradient x1="29.3703914%" y1="52.1492647%" x2="82.8167039%" y2="82.8455882%" id="linearGradient-15">
            <stop stop-color="#263238" stop-opacity="0.2" offset="0%"></stop>
            <stop stop-color="#263238" stop-opacity="0.02" offset="100%"></stop>
        </linearGradient>
        <path d="M101.333333,50.6666667 C101.333333,22.6866667 78.6466667,0 50.6666667,0 C22.6866667,0 0,22.6866667 0,50.6666667 C0,66.0533333 6.86666667,79.8266667 17.6933333,89.1133333 L11.6133333,99.64 L11.6133333,108 C11.6133333,108.733333 12.2133333,109.333333 12.9466667,109.333333 C13.1933333,109.333333 13.42,109.266667 13.62,109.153333 L20.8533333,104.98 L26.5,95.2066667 C33.68,99.1133333 41.9133333,101.333333 50.6666667,101.333333 C59.42,101.333333 67.6533333,99.1133333 74.84,95.2066667 L80.4866667,104.98 L87.72,109.153333 C87.92,109.266667 88.1466667,109.333333 88.3933333,109.333333 C89.1266667,109.333333 89.7266667,108.733333 89.7266667,108 L89.7266667,99.64 L83.6466667,89.1133333 C94.4666667,79.8266667 101.333333,66.0533333 101.333333,50.6666667 Z" id="path-16"></path>
        <path d="M101.333333,50.6666667 C101.333333,22.6866667 78.6466667,0 50.6666667,0 C22.6866667,0 0,22.6866667 0,50.6666667 C0,66.0533333 6.86666667,79.8266667 17.6933333,89.1133333 L11.6133333,99.64 L11.6133333,108 C11.6133333,108.733333 12.2133333,109.333333 12.9466667,109.333333 C13.1933333,109.333333 13.42,109.266667 13.62,109.153333 L20.8533333,104.98 L26.5,95.2066667 C33.68,99.1133333 41.9133333,101.333333 50.6666667,101.333333 C59.42,101.333333 67.6533333,99.1133333 74.84,95.2066667 L80.4866667,104.98 L87.72,109.153333 C87.92,109.266667 88.1466667,109.333333 88.3933333,109.333333 C89.1266667,109.333333 89.7266667,108.733333 89.7266667,108 L89.7266667,99.64 L83.6466667,89.1133333 C94.4666667,79.8266667 101.333333,66.0533333 101.333333,50.6666667 Z" id="path-18"></path>
        <path d="M101.333333,50.6666667 C101.333333,22.6866667 78.6466667,0 50.6666667,0 C22.6866667,0 0,22.6866667 0,50.6666667 C0,66.0533333 6.86666667,79.8266667 17.6933333,89.1133333 L11.6133333,99.64 L11.6133333,108 C11.6133333,108.733333 12.2133333,109.333333 12.9466667,109.333333 C13.1933333,109.333333 13.42,109.266667 13.62,109.153333 L20.8533333,104.98 L26.5,95.2066667 C33.68,99.1133333 41.9133333,101.333333 50.6666667,101.333333 C59.42,101.333333 67.6533333,99.1133333 74.84,95.2066667 L80.4866667,104.98 L87.72,109.153333 C87.92,109.266667 88.1466667,109.333333 88.3933333,109.333333 C89.1266667,109.333333 89.7266667,108.733333 89.7266667,108 L89.7266667,99.64 L83.6466667,89.1133333 C94.4666667,79.8266667 101.333333,66.0533333 101.333333,50.6666667 Z" id="path-20"></path>
        <path d="M101.333333,50.6666667 C101.333333,22.6866667 78.6466667,0 50.6666667,0 C22.6866667,0 0,22.6866667 0,50.6666667 C0,66.0533333 6.86666667,79.8266667 17.6933333,89.1133333 L11.6133333,99.64 L11.6133333,108 C11.6133333,108.733333 12.2133333,109.333333 12.9466667,109.333333 C13.1933333,109.333333 13.42,109.266667 13.62,109.153333 L20.8533333,104.98 L26.5,95.2066667 C33.68,99.1133333 41.9133333,101.333333 50.6666667,101.333333 C59.42,101.333333 67.6533333,99.1133333 74.84,95.2066667 L80.4866667,104.98 L87.72,109.153333 C87.92,109.266667 88.1466667,109.333333 88.3933333,109.333333 C89.1266667,109.333333 89.7266667,108.733333 89.7266667,108 L89.7266667,99.64 L83.6466667,89.1133333 C94.4666667,79.8266667 101.333333,66.0533333 101.333333,50.6666667 Z" id="path-22"></path>
        <path d="M101.333333,50.6666667 C101.333333,22.6866667 78.6466667,0 50.6666667,0 C22.6866667,0 0,22.6866667 0,50.6666667 C0,66.0533333 6.86666667,79.8266667 17.6933333,89.1133333 L11.6133333,99.64 L11.6133333,108 C11.6133333,108.733333 12.2133333,109.333333 12.9466667,109.333333 C13.1933333,109.333333 13.42,109.266667 13.62,109.153333 L20.8533333,104.98 L26.5,95.2066667 C33.68,99.1133333 41.9133333,101.333333 50.6666667,101.333333 C59.42,101.333333 67.6533333,99.1133333 74.84,95.2066667 L80.4866667,104.98 L87.72,109.153333 C87.92,109.266667 88.1466667,109.333333 88.3933333,109.333333 C89.1266667,109.333333 89.7266667,108.733333 89.7266667,108 L89.7266667,99.64 L83.6466667,89.1133333 C94.4666667,79.8266667 101.333333,66.0533333 101.333333,50.6666667 Z" id="path-24"></path>
        <path d="M101.333333,50.6666667 C101.333333,22.6866667 78.6466667,0 50.6666667,0 C22.6866667,0 0,22.6866667 0,50.6666667 C0,66.0533333 6.86666667,79.8266667 17.6933333,89.1133333 L11.6133333,99.64 L11.6133333,108 C11.6133333,108.733333 12.2133333,109.333333 12.9466667,109.333333 C13.1933333,109.333333 13.42,109.266667 13.62,109.153333 L20.8533333,104.98 L26.5,95.2066667 C33.68,99.1133333 41.9133333,101.333333 50.6666667,101.333333 C59.42,101.333333 67.6533333,99.1133333 74.84,95.2066667 L80.4866667,104.98 L87.72,109.153333 C87.92,109.266667 88.1466667,109.333333 88.3933333,109.333333 C89.1266667,109.333333 89.7266667,108.733333 89.7266667,108 L89.7266667,99.64 L83.6466667,89.1133333 C94.4666667,79.8266667 101.333333,66.0533333 101.333333,50.6666667 Z" id="path-26"></path>
        <path d="M101.333333,50.6666667 C101.333333,22.6866667 78.6466667,0 50.6666667,0 C22.6866667,0 0,22.6866667 0,50.6666667 C0,66.0533333 6.86666667,79.8266667 17.6933333,89.1133333 L11.6133333,99.64 L11.6133333,108 C11.6133333,108.733333 12.2133333,109.333333 12.9466667,109.333333 C13.1933333,109.333333 13.42,109.266667 13.62,109.153333 L20.8533333,104.98 L26.5,95.2066667 C33.68,99.1133333 41.9133333,101.333333 50.6666667,101.333333 C59.42,101.333333 67.6533333,99.1133333 74.84,95.2066667 L80.4866667,104.98 L87.72,109.153333 C87.92,109.266667 88.1466667,109.333333 88.3933333,109.333333 C89.1266667,109.333333 89.7266667,108.733333 89.7266667,108 L89.7266667,99.64 L83.6466667,89.1133333 C94.4666667,79.8266667 101.333333,66.0533333 101.333333,50.6666667 Z" id="path-28"></path>
        <radialGradient cx="14.7092105%" cy="13.5310976%" fx="14.7092105%" fy="13.5310976%" r="118.502632%" gradientTransform="translate(0.147092,0.135311),scale(1.000000,0.926829),translate(-0.147092,-0.135311)" id="radialGradient-30">
            <stop stop-color="#FFFFFF" stop-opacity="0.1" offset="0%"></stop>
            <stop stop-color="#FFFFFF" stop-opacity="0" offset="100%"></stop>
        </radialGradient>
    </defs>
    <g id="android-studio-128" stroke="none" stroke-width="1" fill="none" fill-rule="evenodd">
        <g id="logo_android_studio_192px_clr">
            <g>
                <g id="Group-2" transform="translate(13.000000, 8.500000)">
                    <g id="Clipped" transform="translate(0.333333, 0.333333)">
                        <mask id="mask-2" fill="white">
                            <use xlink:href="#path-1"></use>
                        </mask>
                        <g id="a"></g>
                        <circle id="Oval" fill="#45EF8A" fill-rule="nonzero" mask="url(#mask-2)" cx="50.6666667" cy="50.6666667" r="50.6666667"></circle>
                    </g>
                    <g id="Clipped" transform="translate(0.333333, 0.333333)">
                        <mask id="mask-4" fill="white">
                            <use xlink:href="#path-3"></use>
                        </mask>
                        <g id="a"></g>
                        <path d="M50.6666667,100.666667 C78.4266667,100.666667 100.96,78.34 101.313333,50.6666667 L101.333333,50.6666667 C101.333333,78.6466667 78.6466667,101.333333 50.6666667,101.333333 C22.6866667,101.333333 0,78.6466667 0,50.6666667 L0.02,50.6666667 C0.373333333,78.34 22.9066667,100.666667 50.6666667,100.666667 Z" id="Shape" fill-opacity="0.2" fill="#263238" fill-rule="nonzero" mask="url(#mask-4)"></path>
                    </g>
                    <g id="Clipped" transform="translate(0.333333, 0.333333)">
                        <mask id="mask-6" fill="white">
                            <use xlink:href="#path-5"></use>
                        </mask>
                        <g id="a"></g>
                        <path d="M50.6666667,0 C22.6866667,0 0,22.6866667 0,50.6666667 L101.333333,50.6666667 C101.333333,22.6866667 78.6466667,0 50.6666667,0 Z" id="Shape" fill="#3DDC84" mask="url(#mask-6)"></path>
                    </g>
                    <g id="Clipped" transform="translate(0.333333, 0.333333)">
                        <mask id="mask-8" fill="white">
                            <use xlink:href="#path-7"></use>
                        </mask>
                        <g id="a"></g>
                        <circle id="Oval" fill="#3DDC84" mask="url(#mask-8)" cx="50.6666667" cy="42.6666667" r="6.66666667"></circle>
                    </g>
                    <g id="Clipped" transform="translate(0.333333, 0.333333)">
                        <mask id="mask-10" fill="white">
                            <use xlink:href="#path-9"></use>
                        </mask>
                        <g id="a"></g>
                        <polygon id="Shape" fill-opacity="0.05" fill="#263238" fill-rule="nonzero" mask="url(#mask-10)" points="0 50 101.333333 50 101.333333 50.6666667 0 50.6666667"></polygon>
                    </g>
                    <g id="Clipped" transform="translate(0.333333, 0.333333)">
                        <mask id="mask-12" fill="white">
                            <use xlink:href="#path-11"></use>
                        </mask>
                        <g id="a"></g>
                        <polygon id="Shape" fill-opacity="0.05" fill="#FFFFFF" fill-rule="nonzero" mask="url(#mask-12)" points="0 50.6666667 101.333333 50.6666667 101.333333 51.3333333 0 51.3333333"></polygon>
                    </g>
                    <g id="Clipped" transform="translate(0.333333, 0.333333)">
                        <mask id="mask-14" fill="white">
                            <use xlink:href="#path-13"></use>
                        </mask>
                        <g id="a"></g>
                        <polygon id="Shape" fill="url(#linearGradient-15)" fill-rule="nonzero" mask="url(#mask-14)" points="56 18.6666667 45.3333333 26.6666667 39.8866667 50.6666667 12.9466667 109.333333 101.333333 109.333333 101.333333 64"></polygon>
                    </g>
                    <g id="Clipped" transform="translate(0.333333, 0.333333)">
                        <mask id="mask-17" fill="white">
                            <use xlink:href="#path-16"></use>
                        </mask>
                        <g id="a"></g>
                    </g>
                    <g id="Clipped" transform="translate(0.333333, 0.333333)">
                        <mask id="mask-19" fill="white">
                            <use xlink:href="#path-18"></use>
                        </mask>
                        <g id="a"></g>
                        <path d="M50.6666667,0.666666667 C78.4266667,0.666666667 100.96,22.9933333 101.313333,50.6666667 L101.333333,50.6666667 C101.333333,22.6866667 78.6466667,0 50.6666667,0 C22.6866667,0 0,22.6866667 0,50.6666667 L0.02,50.6666667 C0.373333333,22.9933333 22.9066667,0.666666667 50.6666667,0.666666667 Z" id="Shape" fill-opacity="0.2" fill="#FFFFFF" fill-rule="nonzero" mask="url(#mask-19)"></path>
                    </g>
                    <g id="Clipped" transform="translate(0.333333, 0.333333)">
                        <mask id="mask-21" fill="white">
                            <use xlink:href="#path-20"></use>
                        </mask>
                        <g id="a"></g>
                        <g id="Group" mask="url(#mask-21)">
                            <g transform="translate(43.333333, 45.333333)">
                                <path d="M18.1133333,5.33333333 L5.79333333,5.33333333 L37.1533333,59.6466667 L44.3866667,63.82 C44.5866667,63.9333333 44.8133333,64 45.06,64 C45.7933333,64 46.3933333,63.4 46.3933333,62.6666667 L46.3933333,54.3066667 L18.1133333,5.33333333 Z" id="Shape" fill="#D7EFFE" fill-rule="nonzero"></path>
                                <path d="M18.1133333,5.33333333 L5.79333333,5.33333333 L37.1533333,59.6466667 L44.3866667,63.82 C44.5866667,63.9333333 44.8133333,64 45.06,64 C45.7933333,64 46.3933333,63.4 46.3933333,62.6666667 L46.3933333,54.3066667 L18.1133333,5.33333333 Z" id="Shape" fill="#BDBDBD" fill-rule="nonzero" opacity="0.3"></path>
                                <polygon id="Shape" fill-opacity="0.2" fill="#FFFFFF" fill-rule="nonzero" points="18.1133333 5.33333333 17.7266667 5.33333333 46.3866667 54.9733333 46.3866667 54.3066667"></polygon>
                                <path d="M45.0533333,63.3333333 C44.8066667,63.3333333 44.58,63.2666667 44.38,63.1533333 L37.1466667,58.98 L6.18,5.33333333 L5.79333333,5.33333333 L37.1533333,59.6466667 L44.3866667,63.82 C44.5866667,63.9333333 44.8133333,64 45.06,64 C45.7933333,64 46.3933333,63.4 46.3933333,62.6666667 L46.3933333,62 C46.3866667,62.7333333 45.7866667,63.3333333 45.0533333,63.3333333 L45.0533333,63.3333333 Z" id="Shape" fill-opacity="0.1" fill="#212121" fill-rule="nonzero"></path>
                            </g>
                        </g>
                    </g>
                    <g id="Clipped" transform="translate(0.333333, 0.333333)">
                        <mask id="mask-23" fill="white">
                            <use xlink:href="#path-22"></use>
                        </mask>
                        <g id="a"></g>
                        <g id="Group" mask="url(#mask-23)">
                            <g transform="translate(6.000000, 45.333333)">
                                <path d="M71.3333333,5.33333333 C71.3333333,20.06 59.3933333,32 44.6666667,32 C40.2866667,32 36.1533333,30.94 32.5066667,29.0666667 L44.6666667,8 L46.2066667,5.33333333 L33.8866667,5.33333333 L5.60666667,54.3066667 L5.60666667,62.6666667 C5.60666667,63.4 6.20666667,64 6.94,64 C7.18666667,64 7.41333333,63.9333333 7.61333333,63.82 L14.8466667,59.6466667 L27.1666667,38.3133333 C32.3866667,41.0866667 38.34,42.6666667 44.6666667,42.6666667 C65.2866667,42.6666667 82,25.9533333 82,5.33333333 L71.3333333,5.33333333 Z" id="Shape" fill="#D7EFFE" fill-rule="nonzero"></path>
                                <path d="M33.8866667,5.33333333 L5.60666667,54.3066667 L5.60666667,54.9733333 L34.2733333,5.33333333 L33.8866667,5.33333333 L33.8866667,5.33333333 Z M44.6666667,32 C40.2866667,32 36.1533333,30.94 32.5066667,29.0666667 L32.5066667,29.7333333 C36.1533333,31.6066667 40.2866667,32.6666667 44.6666667,32.6666667 C59.3933333,32.6666667 71.3333333,20.7266667 71.3333333,6 L81.98,6 C81.9866667,5.78 82,5.56 82,5.33333333 L71.3333333,5.33333333 C71.3333333,20.06 59.3933333,32 44.6666667,32 Z" id="Shape" fill-opacity="0.4" fill="#FFFFFF" fill-rule="nonzero"></path>
                                <path d="M46.2066667,5.33333333 L45.82,5.33333333 L32.5,28.4 L32.5,29.0666667 L46.2066667,5.33333333 Z M81.98,5.33333333 C81.62,25.64 65.06,42 44.6666667,42 C38.34,42 32.3866667,40.42 27.1666667,37.6466667 L14.8466667,58.98 L7.61333333,63.1533333 C7.41333333,63.2666667 7.18666667,63.3333333 6.94,63.3333333 C6.20666667,63.3333333 5.60666667,62.7333333 5.60666667,62 L5.60666667,62.6666667 C5.60666667,63.4 6.20666667,64 6.94,64 C7.18666667,64 7.41333333,63.9333333 7.61333333,63.82 L14.8466667,59.6466667 L27.1666667,38.3133333 C32.3866667,41.0866667 38.34,42.6666667 44.6666667,42.6666667 C65.2866667,42.6666667 82,25.9533333 82,5.33333333 L81.98,5.33333333 Z" id="Shape" fill-opacity="0.1" fill="#212121" fill-rule="nonzero"></path>
                            </g>
                        </g>
                    </g>
                    <g id="Clipped" transform="translate(0.333333, 0.333333)">
                        <mask id="mask-25" fill="white">
                            <use xlink:href="#path-24"></use>
                        </mask>
                        <g id="a"></g>
                        <g id="Group" mask="url(#mask-25)">
                            <g transform="translate(29.333333, 13.333333)">
                                <path d="M33.3333333,13.3333333 L26.6666667,13.3333333 L26.6666667,5.33333333 L16,5.33333333 L16,13.3333333 L9.33333333,13.3333333 C7.13333333,13.3333333 5.33333333,15.1333333 5.33333333,17.3333333 L5.33333333,37.3333333 L18.5066667,50.4933333 C19.2333333,51.2133333 20.2266667,51.6666667 21.3333333,51.6666667 C22.44,51.6666667 23.44,51.22 24.16,50.4933333 L37.3333333,37.3333333 L37.3333333,17.3333333 C37.3333333,15.1333333 35.5333333,13.3333333 33.3333333,13.3333333 Z M21.3333333,36 C17.6533333,36 14.6666667,33.0133333 14.6666667,29.3333333 C14.6666667,25.6533333 17.6533333,22.6666667 21.3333333,22.6666667 C25.0133333,22.6666667 28,25.6533333 28,29.3333333 C28,33.0133333 25.0133333,36 21.3333333,36 Z" id="Shape" fill="#073042" fill-rule="nonzero"></path>
                            </g>
                        </g>
                    </g>
                    <g id="Clipped" transform="translate(0.333333, 0.333333)">
                        <mask id="mask-27" fill="white">
                            <use xlink:href="#path-26"></use>
                        </mask>
                        <g id="a"></g>
                        <path d="M62.6666667,26.6666667 L56,26.6666667 L56,27.3333333 L62.6666667,27.3333333 C64.8666667,27.3333333 66.6666667,29.1333333 66.6666667,31.3333333 L66.6666667,30.6666667 C66.6666667,28.4666667 64.8666667,26.6666667 62.6666667,26.6666667 Z M56,18.6666667 L45.3333333,18.6666667 L45.3333333,19.3333333 L56,19.3333333 L56,18.6666667 Z M45.3333333,26.6666667 L38.6666667,26.6666667 C36.4666667,26.6666667 34.6666667,28.4666667 34.6666667,30.6666667 L34.6666667,31.3333333 C34.6666667,29.1333333 36.4666667,27.3333333 38.6666667,27.3333333 L45.3333333,27.3333333 L45.3333333,26.6666667 Z M50.6666667,49.3333333 C46.9866667,49.3333333 44,46.3466667 44,42.6666667 L44,43.3333333 C44,47.0133333 46.9866667,50 50.6666667,50 C54.3466667,50 57.3333333,47.0133333 57.3333333,43.3333333 L57.3333333,42.6666667 C57.3333333,46.3466667 54.3466667,49.3333333 50.6666667,49.3333333 Z" id="Shape" fill-opacity="0.1" fill="#FFFFFF" fill-rule="nonzero" mask="url(#mask-27)"></path>
                    </g>
                    <g id="Clipped" transform="translate(0.333333, 0.333333)">
                        <mask id="mask-29" fill="white">
                            <use xlink:href="#path-28"></use>
                        </mask>
                        <g id="a"></g>
                        <path d="M50.6666667,36 C54.3466667,36 57.3333333,38.9866667 57.3333333,42.6666667 L57.3333333,42 C57.3333333,38.32 54.3466667,35.3333333 50.6666667,35.3333333 C46.9866667,35.3333333 44,38.32 44,42 L44,42.6666667 C44,38.9866667 46.9866667,36 50.6666667,36 Z M53.4933333,63.16 C52.7666667,63.88 51.7733333,64.3333333 50.6666667,64.3333333 C49.56,64.3333333 48.56,63.8866667 47.84,63.16 L34.6666667,50 L34.6666667,50.6666667 L47.84,63.8266667 C48.5666667,64.5466667 49.56,65 50.6666667,65 C51.7733333,65 52.7733333,64.5533333 53.4933333,63.8266667 L66.6666667,50.6666667 L66.6666667,50 L53.4933333,63.16 L53.4933333,63.16 Z" id="Shape" fill-opacity="0.1" fill="#212121" fill-rule="nonzero" mask="url(#mask-29)"></path>
                    </g>
                    <path d="M101.666667,51 C101.666667,23.02 78.98,0.333333333 51,0.333333333 C23.02,0.333333333 0.333333333,23.02 0.333333333,51 C0.333333333,66.3866667 7.2,80.16 18.0266667,89.4466667 L11.9466667,99.9733333 L11.9466667,108.333333 C11.9466667,109.066667 12.5466667,109.666667 13.28,109.666667 C13.5266667,109.666667 13.7533333,109.6 13.9533333,109.486667 L21.1866667,105.313333 L26.8333333,95.54 C34.0133333,99.4466667 42.2466667,101.666667 51,101.666667 C59.7533333,101.666667 67.9866667,99.4466667 75.1733333,95.54 L80.82,105.313333 L88.0533333,109.486667 C88.2533333,109.6 88.48,109.666667 88.7266667,109.666667 C89.46,109.666667 90.06,109.066667 90.06,108.333333 L90.06,99.9733333 L83.98,89.4466667 C94.8,80.16 101.666667,66.3866667 101.666667,51 Z" id="Shape" fill="url(#radialGradient-30)" fill-rule="nonzero"></path>
                </g>
                <polygon id="Shape" points="0 0 128 0 128 128 0 128"></polygon>
            </g>
        </g>
    </g>
</svg>